<svg xmlns="http://www.w3.org/2000/svg" width="65" height="64" fill="none"><path fill="#3969EF" d="M14.417 16H48.25c1.335 0 2.417 1.194 2.417 2.667v12A3.333 3.333 0 0 1 47.333 34h-6a8 8 0 0 0-8 8v3.333H12V18.667C12 17.194 13.082 16 14.417 16Z"/><path fill="#CCDAFF" fill-rule="evenodd" d="M33.333 43.333h-18v-24h32V34h-6a8 8 0 0 0-8 8v1.333Z" clip-rule="evenodd"/><g clip-path="url(#a)"><path fill="#3969EF" d="M33.811 27.31a.007.007 0 0 1 .007-.01c.243.036.498.118.786.267.164.085.317.199.462.341.137.134.287.43.138.548-.118.094-.247.21-.4.375-.153.163-.27.362-.388.62-.117.257-.164.55-.164.888 0 .398.07.725.211 1.006.141.28.306.491.494.667.188.175.353.292.494.362.153.077.207.221.147.382l-.089.238a4.641 4.641 0 0 1-.552 1.018c-.223.327-.47.62-.729.9a1.22 1.22 0 0 1-.928.41c-.247 0-.447-.035-.6-.106-.152-.07-.317-.14-.482-.21-.164-.07-.387-.105-.67-.105-.282 0-.493.035-.681.105-.188.07-.353.14-.517.222-.165.082-.353.105-.576.105a1.15 1.15 0 0 1-.882-.397 9.943 9.943 0 0 1-.775-.948 6.38 6.38 0 0 1-.788-1.602A6.036 6.036 0 0 1 27 30.468c0-.69.13-1.263.388-1.743.258-.48.6-.819 1.01-1.064a2.448 2.448 0 0 1 1.282-.363c.235 0 .458.035.658.117s.4.152.588.234c.188.082.34.117.493.117.153 0 .306-.047.494-.128.188-.082.4-.164.635-.246.235-.082.481-.117.752-.117.104 0 .264.011.504.045.005 0 .01-.005.007-.01Zm-1.575-.403a1.68 1.68 0 0 1-.782.216c-.023 0-.046 0-.07-.002-.042-.002-.069-.04-.082-.08-.012-.035 0-.07 0-.117 0-.269.058-.538.176-.795a2.64 2.64 0 0 1 .411-.644 2.23 2.23 0 0 1 .73-.573c.215-.111.424-.185.623-.221.12-.022.234.064.234.186 0 .27-.047.538-.153.796a2.688 2.688 0 0 1-.411.69 2.186 2.186 0 0 1-.663.534.057.057 0 0 0-.013.01Z"/></g><path fill="#7295F6" fill-rule="evenodd" d="M33.333 42H8.667v3.333h24.666V42Z" clip-rule="evenodd"/><path fill="#3969EF" d="M33.333 45.333H8.667l1.687 1.886c.447.5 1.054.78 1.687.78h18.626a2.667 2.667 0 0 0 2.666-2.666Z"/><path fill="#DE5833" d="M36 42a5.333 5.333 0 0 1 5.333-5.333H52A5.333 5.333 0 0 1 57.333 42v10.667A5.333 5.333 0 0 1 52 58H41.333A5.333 5.333 0 0 1 36 52.667V42Z"/><path fill="#fff" d="M49.21 46.976c-.066.042-.275.018-.55-.014-2.44-.429-2.677.964-1.502 3.083-1.064.317.191 3.387 1.215 5.692-1.12.397-3.181.311-4.134-.04l-.005-.016c-.21-.077-.47-.077-.59-.242-.329-2.255-4.904-13.018.686-13.723.035-.01-.722-.245-1.742.01-1.274.254 1.239-3.471 3.878-.205 2.869.627 3.074 5.245 2.744 5.455Z"/><path fill="#4CBA3C" d="M50.193 54.06c-.028.182-.091.304-.204.322-.212.032-1.165-.186-1.706-.392-.062.283-1.513.551-1.742.171-.527.455-1.535 1.115-1.746.977-.404-.264-.784-2.3-.48-2.73.462-.42 1.432.036 2.114.277.23-.39 1.349-.538 1.58-.218.612-.465 1.633-1.12 1.732-1 .496.597.56 2.02.452 2.593Z"/><path fill="#FC3" fill-rule="evenodd" d="M45.02 47.913c.208-1.477 2.998-1.015 4.245-1.18a8.08 8.08 0 0 0 2.033-.504c1.032-.424 1.208-.004.704.656-1.425 1.69-4.593.46-5.16 1.333-.166.259-.038.868 1.265 1.06 1.761.259 3.208-.312 3.386.033-.401 1.843-7.087 1.216-6.474-1.398Z" clip-rule="evenodd"/><g fill="#14307E" opacity=".8"><path d="M47.266 43.637c.182-.382 1.13-.385 1.315.015.024.033-.012.072-.049.056-.731-.392-1.311.146-1.266-.071ZM43.246 43.847c.407-.227.962-.002.848-.144-.392-.395-1.47-.088-1.494.548 0 .048.096.052.12.011.068-.109.18-.267.526-.415Z"/><path fill-rule="evenodd" d="M48.243 45.881c-.726-.004-.726-1.123 0-1.126.726.003.726 1.122 0 1.126ZM44.565 45.708c-.014.863-1.28.863-1.294 0 .004-.86 1.29-.859 1.294 0Z" clip-rule="evenodd"/></g><path fill="#fff" fill-rule="evenodd" d="M46.667 39.304a8.03 8.03 0 1 0 0 16.059 8.03 8.03 0 0 0 0-16.059Zm-9.304 8.03a9.304 9.304 0 1 1 18.608 0 9.304 9.304 0 0 1-18.608 0Z" clip-rule="evenodd"/><path fill="#CCC" d="M60.936 47.204h2.402c.44 0 .8.36.8.8 0 .44-.36.8-.8.8h-2.402c-.44 0-.8-.36-.8-.8 0-.44.36-.8.8-.8ZM61.737 40a.802.802 0 0 1 .564 1.369l-1.601 1.6a.802.802 0 0 1-1.133-1.132l1.601-1.6a.798.798 0 0 1 .565-.237h.004ZM60.14 52.808a.802.802 0 0 0-.564 1.369l1.6 1.6a.802.802 0 0 0 1.133-1.132l-1.6-1.601a.798.798 0 0 0-.565-.236h-.004Z"/><defs><clipPath id="a"><path fill="#fff" d="M26 24.667h10.667v10.667H26z"/></clipPath></defs></svg>